<svg width="80" height="80" viewBox="0 0 80 80" fill="none" xmlns="http://www.w3.org/2000/svg">
<rect x="-0.178124" y="9.70312" width="71" height="71" rx="16.5916" transform="rotate(-8 -0.178124 9.70312)" fill="#1E1E1E"/>
<rect x="-0.178124" y="9.70312" width="71" height="71" rx="16.5916" transform="rotate(-8 -0.178124 9.70312)" stroke="url(#paint0_linear_1_7324)"/>
<path fill-rule="evenodd" clip-rule="evenodd" d="M43.2066 24.7424C46.2358 25.9926 48.8077 28.5341 50.3051 32.4846C54.462 32.8514 57.6826 35.5902 59.2632 38.9873C60.9785 42.6738 60.8564 47.3379 57.798 50.881C55.9925 53.0704 53.4235 54.4937 50.6039 54.8702L30.4753 57.6991C30.4405 57.7039 30.4054 57.7076 30.3703 57.7101C20.547 58.3912 18.0919 45.0921 26.3622 41.7007C24.9109 38.1109 24.986 34.7389 26.1543 31.8824C27.4833 28.633 30.1643 26.202 33.2594 24.9055C36.3543 23.609 39.9648 23.4045 43.2066 24.7424ZM28.9311 33.0181C28.0372 35.2035 27.9464 37.9446 29.3599 41.0833C30.2822 41.0855 31.2003 41.2376 32.0761 41.5391C32.8594 41.8088 33.2758 42.6624 33.0062 43.4457C32.7365 44.229 31.8829 44.6454 31.0996 44.3757C30.312 44.1046 29.4629 44.02 28.6211 44.1303C22.1075 45.5711 23.4526 55.1341 30.1127 54.7205L50.1916 51.8986L50.2026 51.8971L50.2026 51.8971C52.2812 51.6207 54.1697 50.5712 55.4926 48.9613C55.5009 48.9512 55.5093 48.9413 55.5178 48.9315C57.6877 46.4264 57.8495 43.0602 56.5432 40.2528C55.2901 37.5597 52.7728 35.5674 49.6449 35.4484C49.6098 35.4566 49.5741 35.4636 49.5378 35.4693C48.7095 35.6004 47.921 35.9155 47.2273 36.3934C46.5451 36.8634 45.611 36.6914 45.141 36.0092C44.671 35.327 44.843 34.393 45.5252 33.923C46.0735 33.5453 46.6611 33.2335 47.2766 32.9926C46.0324 30.0804 44.1225 28.3659 42.0621 27.5155C39.6529 26.5212 36.8769 26.6427 34.4185 27.6725C31.9601 28.7023 29.9208 30.5981 28.9311 33.0181Z" fill="url(#paint1_linear_1_7324)"/>
<defs>
<linearGradient id="paint0_linear_1_7324" x1="35.3866" y1="10.1287" x2="35.3866" y2="80.1287" gradientUnits="userSpaceOnUse">
<stop stop-color="#343434" stop-opacity="0.4"/>
<stop offset="1" stop-color="#373737"/>
</linearGradient>
<linearGradient id="paint1_linear_1_7324" x1="21.5807" y1="20.1299" x2="42.0256" y2="56.1538" gradientUnits="userSpaceOnUse">
<stop stop-color="#5090FF"/>
<stop offset="1" stop-color="#085CED"/>
</linearGradient>
</defs>
</svg>
