<svg width="20" height="20" viewBox="0 0 20 20" fill="none" xmlns="http://www.w3.org/2000/svg">
<path d="M3.30729 1.66669H5.80729C6.72396 1.66669 7.47396 2.41669 7.47396 3.33335V5.83335C7.47396 6.75002 6.72396 7.50002 5.80729 7.50002H3.30729C2.39062 7.50002 1.64062 6.75002 1.64062 5.83335V3.33335C1.64063 2.41669 2.39062 1.66669 3.30729 1.66669Z" stroke="white" stroke-width="1.5"/>
<path d="M14.1416 12.5H16.6416C17.5583 12.5 18.3083 13.25 18.3083 14.1667V16.6667C18.3083 17.5833 17.5583 18.3333 16.6416 18.3333H14.1416C13.225 18.3333 12.475 17.5833 12.475 16.6667V14.1667C12.475 13.25 13.225 12.5 14.1416 12.5Z" stroke="white" stroke-width="1.5"/>
<path d="M9.99997 4.16669H12.2333C13.775 4.16669 14.4916 6.07502 13.3333 7.09169L6.67497 12.9167C5.51664 13.925 6.23331 15.8334 7.76664 15.8334H9.99997" stroke="white" stroke-width="1.5" stroke-linecap="round" stroke-linejoin="round"/>
</svg>
