<svg width="66" height="66" viewBox="0 0 66 66" fill="none" xmlns="http://www.w3.org/2000/svg">
<mask id="mask0_1_7349" style="mask-type:alpha" maskUnits="userSpaceOnUse" x="16" y="15" width="34" height="36">
<path d="M48.6553 26.9584L38.8504 16V24.6514C38.8504 25.9255 39.8833 26.9584 41.1575 26.9584H48.6553Z" fill="#FDA723"/>
<path d="M17.5104 32.1492V18.307C17.5104 17.0329 18.5433 16 19.8174 16H38.8504M38.8504 16L48.6553 26.9584M38.8504 16V24.6514C38.8504 25.9255 39.8833 26.9584 41.1575 26.9584H48.6553M48.6553 26.9584V32.1492" stroke="#FDA723" stroke-width="2" stroke-linecap="round" stroke-linejoin="round"/>
<path d="M21.6036 50.0005C20.6442 50.0005 19.8236 49.8618 19.1417 49.5844C18.4713 49.307 17.9223 48.914 17.4946 48.4054C17.0785 47.8969 16.7722 47.29 16.5757 46.585C16.3908 45.8684 16.2983 45.0651 16.2983 44.1751V37.5869H18.8123V44.3485C18.8123 44.7993 18.8585 45.2327 18.951 45.6488C19.0434 46.0533 19.1995 46.4116 19.4191 46.7237C19.6387 47.0358 19.9276 47.29 20.2859 47.4865C20.6442 47.6715 21.095 47.7639 21.6382 47.7639C22.1699 47.7639 22.6149 47.6715 22.9732 47.4865C23.3315 47.29 23.6147 47.0358 23.8227 46.7237C24.0424 46.4001 24.1926 46.036 24.2735 45.6314C24.366 45.2153 24.4122 44.7877 24.4122 44.3485V37.5869H26.9088V44.1751C26.9088 45.042 26.8106 45.8395 26.6141 46.5677C26.4291 47.2843 26.1228 47.8969 25.6952 48.4054C25.2791 48.914 24.7301 49.307 24.0481 49.5844C23.3778 49.8618 22.5629 50.0005 21.6036 50.0005Z" fill="white"/>
<path d="M34.311 37.5869C34.6347 37.5869 34.9583 37.5985 35.2819 37.6216C35.6056 37.6331 35.9234 37.6736 36.2355 37.7429C36.5476 37.8123 36.8481 37.9163 37.137 38.055C37.4375 38.1822 37.7149 38.3613 37.9692 38.5925C38.3738 38.9623 38.6627 39.4073 38.8361 39.9275C39.0095 40.436 39.0904 40.9561 39.0788 41.4878C39.0672 42.2044 38.9401 42.8112 38.6974 43.3082C38.4662 43.8052 38.1484 44.2271 37.7438 44.5739C37.374 44.8744 36.9463 45.0882 36.4609 45.2153L39.1828 49.8618H36.3742L33.8949 45.4581H31.9358V49.8618H29.4219V37.5869H34.311ZM34.3284 43.3429C34.6404 43.3429 34.9352 43.314 35.2126 43.2562C35.49 43.1984 35.7269 43.106 35.9234 42.9788C36.1315 42.8401 36.2933 42.661 36.4089 42.4414C36.536 42.2102 36.6053 41.9213 36.6169 41.5745C36.6285 41.2046 36.5764 40.9041 36.4609 40.673C36.3453 40.4418 36.1835 40.2626 35.9754 40.1355C35.7789 40.0084 35.542 39.9275 35.2646 39.8928C34.9987 39.8465 34.704 39.8234 34.3804 39.8234H31.9358V43.3429H34.3284Z" fill="white"/>
<path d="M43.6855 47.6426H49.7016V49.8618H41.1889V37.5869H43.6855V47.6426Z" fill="white"/>
</mask>
<g mask="url(#mask0_1_7349)">
<rect x="8.7417" y="8.75488" width="72.0948" height="50.3333" fill="url(#paint0_linear_1_7349)"/>
</g>
<defs>
<linearGradient id="paint0_linear_1_7349" x1="42.4985" y1="3.75736" x2="42.4985" y2="57.7938" gradientUnits="userSpaceOnUse">
<stop stop-color="#FFBF00"/>
<stop offset="0.892445" stop-color="#FB9937"/>
</linearGradient>
</defs>
</svg>
